# xmcd CD database file
#
# Track frame offsets:
#	150
#	16327
#	35885
#	56002
#
# Disc length: 962 seconds
#
# Revision: 0
# Processed by: cddbd v1.5PL3 Copyright (c) Steve Scherf et al.
# Submitted via: CDex 1.51
#
DISCID=3003c004
DTITLE=Grass Nation. - Missing
DYEAR=2002
DGENRE=JPop
TTITLE0=Missing
TTITLE1=Tomorrow
TTITLE2=AFFAIR
TTITLE3=Missing (Instrumental)
EXTD=YEAR: 2002
EXTT0=
EXTT1=
EXTT2=
EXTT3=
PLAYORDER=
